<svg width="200" height="150" viewBox="0 0 200 150" xmlns="http://www.w3.org/2000/svg">
  <!-- 盘子 -->
  <ellipse cx="100" cy="130" rx="80" ry="15" fill="#f0f0f0" stroke="#ddd" stroke-width="2"/>
  
  <!-- 羊角面包主体 -->
  <path d="M 60 80 Q 50 70 45 85 Q 40 100 50 110 Q 65 120 90 115 Q 120 110 140 95 Q 155 85 150 70 Q 145 60 130 65 Q 110 75 80 80 Z" 
        fill="#deb887" stroke="#cd853f" stroke-width="2"/>
  
  <!-- 面包纹理线条 -->
  <path d="M 55 85 Q 75 82 95 85" fill="none" stroke="#cd853f" stroke-width="1" opacity="0.6"/>
  <path d="M 65 95 Q 90 92 120 95" fill="none" stroke="#cd853f" stroke-width="1" opacity="0.6"/>
  <path d="M 75 105 Q 105 102 135 100" fill="none" stroke="#cd853f" stroke-width="1" opacity="0.6"/>
  
  <!-- 面包片层效果 -->
  <path d="M 60 82 Q 80 79 100 82" fill="none" stroke="#f4a460" stroke-width="1.5"/>
  <path d="M 70 97 Q 95 94 125 97" fill="none" stroke="#f4a460" stroke-width="1.5"/>
  
  <!-- 高光效果 -->
  <ellipse cx="85" cy="85" rx="15" ry="8" fill="#f5deb3" opacity="0.8"/>
  <ellipse cx="115" cy="90" rx="12" ry="6" fill="#f5deb3" opacity="0.6"/>
  
  <!-- 标签 -->
  <rect x="120" y="40" width="70" height="25" fill="white" stroke="#333" stroke-width="1" rx="3"/>
  <text x="155" y="50" text-anchor="middle" fill="#333" font-family="Arial" font-size="10" font-weight="bold">羊角面包</text>
  <text x="155" y="60" text-anchor="middle" fill="#666" font-family="Arial" font-size="8">约231大卡</text>
  
  <!-- 指向线 -->
  <line x1="120" y1="52" x2="95" y2="80" stroke="#999" stroke-width="1" stroke-dasharray="2,2"/>
</svg> 